<?xml version="1.0" encoding="UTF-8"?>
<svg width="185px" height="141px" viewBox="0 0 185 141" version="1.1" xmlns="http://www.w3.org/2000/svg" xmlns:xlink="http://www.w3.org/1999/xlink">
    <!-- Generator: Sketch 42 (36781) - http://www.bohemiancoding.com/sketch -->
    <title>empty</title>
    <desc>Created with Sketch.</desc>
    <defs></defs>
    <g id="Page-1" stroke="none" stroke-width="1" fill="none" fill-rule="evenodd">
        <g id="empty">
            <g id="Ellipse_1_1_" transform="translate(22.000000, 0.000000)">
                <g id="Ellipse_1">
                    <path d="M70.5,140 C32.2,140 1,108.8 1,70.5 C1,32.2 32.2,1 70.5,1 C108.8,1 140,32.2 140,70.5 C140,108.8 108.8,140 70.5,140 Z" id="Shape" fill="#FAFAFA"></path>
                    <path d="M70.5,2 C108.3,2 139,32.7 139,70.5 C139,108.3 108.3,139 70.5,139 C32.7,139 2,108.3 2,70.5 C2,32.7 32.7,2 70.5,2 L70.5,2 Z M70.5,0 C31.6,0 0,31.6 0,70.5 C0,109.4 31.6,141 70.5,141 C109.4,141 141,109.4 141,70.5 C141,31.6 109.4,0 70.5,0 L70.5,0 Z" id="Shape" fill="#F2F4F5" fill-rule="nonzero"></path>
                </g>
            </g>
            <g id="Shape_3_1_" transform="translate(49.000000, 21.000000)" fill="#FFFFFF">
                <g id="Shape_3">
                    <polygon id="Shape" points="60 0 0 0 0 98 88 98 88 28 88 23"></polygon>
                </g>
            </g>
            <g id="Rectangle_2_1_" transform="translate(48.000000, 20.000000)" fill="#F2F4F5">
                <g id="Rectangle_2">
                    <polygon id="Shape" points="89 25 89 99 2 99 2 2 60 2 60 0 0 0 0 101 91 101 91 25"></polygon>
                </g>
            </g>
            <g id="Rectangle_4_1_" transform="translate(106.000000, 19.000000)" fill="#F2F4F5">
                <g id="Rectangle_4">
                    <polygon id="Shape" points="1.7 0.6 0.1 2.1 31.3 27.4 32.9 25.9"></polygon>
                </g>
            </g>
            <g id="Rectangle_3_1_" transform="translate(105.000000, 20.000000)" fill="#F2F4F5">
                <g id="Rectangle_3">
                    <polygon id="Shape" points="31.5 25 2 25 2 2 9.9 7.9 0 0 0 27 34 27"></polygon>
                </g>
            </g>
            <g id="Rectangle_7_copy_1_" transform="translate(107.000000, 18.000000)" fill="#FAFAFC">
                <g id="Rectangle_7_copy">
                    <polygon id="Shape" points="0 0 0 27 32 27"></polygon>
                </g>
            </g>
            <g id="Rectangle_7_1_" transform="translate(110.000000, 20.000000)" fill="#F2F4F5">
                <g id="Rectangle_7">
                    <polygon id="Shape" points="0 0 0 22 29 22"></polygon>
                </g>
            </g>
            <g id="Rectangle_6_copy_3_1_" opacity="0.4" transform="translate(65.000000, 56.000000)" fill="#8C96A9">
                <g id="Rectangle_6_copy_3">
                    <path d="M0,2 L20,2 L20,0 L0,0 L0,2 Z M31,0 L31,5 L51,5 L51,0 L31,0 Z M0,20 L20,20 L20,18 L0,18 L0,20 Z M31,23 L51,23 L51,18 L31,18 L31,23 Z M0,38 L15,38 L15,36 L0,36 L0,38 Z M31,41 L51,41 L51,36 L31,36 L31,41 Z" id="Shape"></path>
                </g>
            </g>
            <g id="Rectangle_5_copy_1_" transform="translate(67.000000, 56.000000)" fill="#FFFFFF">
                <g id="Rectangle_5_copy">
                    <rect id="Rectangle-path" x="0" y="0" width="2" height="2"></rect>
                </g>
            </g>
            <g id="Rectangle_5_copy_2_1_" transform="translate(72.000000, 74.000000)" fill="#FFFFFF">
                <g id="Rectangle_5_copy_2">
                    <rect id="Rectangle-path" x="0" y="0" width="3" height="2"></rect>
                </g>
            </g>
            <g id="Rectangle_5_copy_3_1_" transform="translate(75.000000, 92.000000)" fill="#FFFFFF">
                <g id="Rectangle_5_copy_3">
                    <rect id="Rectangle-path" x="0" y="0" width="3" height="2"></rect>
                </g>
            </g>
            <g id="Rectangle_8_1_" transform="translate(26.000000, 119.000000)" fill="#F2F4F5">
                <g id="Rectangle_8">
                    <rect id="Rectangle-path" x="0" y="0" width="130" height="2"></rect>
                </g>
            </g>
            <g id="Rectangle_8_copy_1_" transform="translate(159.000000, 119.000000)" fill="#F2F4F5">
                <g id="Rectangle_8_copy">
                    <rect id="Rectangle-path" x="0" y="0" width="6" height="2"></rect>
                </g>
            </g>
            <g id="Rectangle_8_copy_3_1_" transform="translate(160.000000, 80.000000)" fill="#F2F4F5">
                <g id="Rectangle_8_copy_3">
                    <path d="M0,0 L0,2 L25,2 L25,0 L0,0 Z M1,7 L12,7 L12,5 L1,5 L1,7 Z" id="Shape"></path>
                </g>
            </g>
            <g id="Rectangle_8_copy_4_1_" transform="translate(0.000000, 60.000000)" fill="#F2F4F5">
                <g id="Rectangle_8_copy_4">
                    <path d="M0,0 L0,2 L25,2 L25,0 L0,0 Z M13,7 L23,7 L23,5 L13,5 L13,7 Z" id="Shape"></path>
                </g>
            </g>
            <g id="Ellipse_2_1_" transform="translate(169.000000, 117.000000)" fill="#F2F4F5">
                <g id="Ellipse_2">
                    <circle id="Oval" cx="2.5" cy="2.5" r="2.5"></circle>
                </g>
            </g>
            <g id="Ellipse_2_copy_1_" transform="translate(16.000000, 118.000000)" fill="#F2F4F5">
                <g id="Ellipse_2_copy">
                    <circle id="Oval" cx="2.5" cy="2.5" r="2.5"></circle>
                </g>
            </g>
        </g>
    </g>
</svg>